<svg width="12" height="17" viewBox="0 0 12 17" fill="none" xmlns="http://www.w3.org/2000/svg">
<path d="M5.99998 16.4166C6.82498 16.4166 7.49998 15.7041 7.49998 14.8333H4.49998C4.49998 15.7041 5.16748 16.4166 5.99998 16.4166ZM10.5 11.6666V7.70829C10.5 5.27788 9.26998 3.24329 7.12498 2.70496V2.16663C7.12498 1.50954 6.62248 0.979126 5.99998 0.979126C5.37748 0.979126 4.87498 1.50954 4.87498 2.16663V2.70496C2.72248 3.24329 1.49998 5.26996 1.49998 7.70829V11.6666L0.532478 12.6879C0.0599776 13.1866 0.389977 14.0416 1.05748 14.0416H10.935C11.6025 14.0416 11.94 13.1866 11.4675 12.6879L10.5 11.6666Z" fill="#8A8A8A"/>
</svg>
