<svg width="194" height="68" viewBox="0 0 194 68" fill="none" xmlns="http://www.w3.org/2000/svg">
<rect x="0.5" y="36.5" width="101" height="31" rx="15.5" stroke="#2F43E5" stroke-opacity="0.5"/>
<path d="M15.3 57H16.223L16.574 54.101H18.368L18.03 57H18.966L19.304 54.101H20.682V53.087H19.434L19.681 51.098H20.968V50.097H19.798L20.123 47.497H19.2L18.862 50.097H17.055L17.38 47.497H16.457L16.132 50.097H14.806V51.098H16.015L15.768 53.087H14.507V54.101H15.638L15.3 57ZM16.691 53.087L16.938 51.098H18.745L18.498 53.087H16.691ZM32.836 46.21V55.102H34.201V46.21H32.836ZM33.798 49.98V51.111H35.878V49.98H33.798ZM24.945 47.562V48.641H31.939V47.562H24.945ZM28.442 49.187C26.739 49.187 25.556 50.097 25.556 51.436C25.556 52.788 26.739 53.685 28.442 53.685C30.132 53.685 31.315 52.788 31.315 51.436C31.315 50.097 30.132 49.187 28.442 49.187ZM28.442 50.24C29.378 50.24 30.015 50.695 30.015 51.436C30.015 52.19 29.378 52.632 28.442 52.632C27.506 52.632 26.869 52.19 26.869 51.436C26.869 50.695 27.506 50.24 28.442 50.24ZM27.766 46.197V48.095H29.118V46.197H27.766ZM26.687 56.74V57.845H34.682V56.74H26.687ZM26.687 54.413V57.208H28.052V54.413H26.687ZM38.308 49.616V50.695H46.433V49.616H38.308ZM38.308 46.587V50.045H39.66V46.587H38.308ZM36.891 51.93V53.022H47.629V51.93H36.891ZM41.688 52.671V55.297H43.04V52.671H41.688ZM38.204 56.74V57.845H46.498V56.74H38.204ZM38.204 54.322V57.299H39.556V54.322H38.204ZM53.634 50.708V51.813H55.74V50.708H53.634ZM57.69 46.197V58.079H58.99V46.197H57.69ZM55.298 46.418V57.507H56.585V46.418H55.298ZM51.515 47.12C49.968 47.12 48.967 48.732 48.967 51.332C48.967 53.945 49.968 55.557 51.515 55.557C53.075 55.557 54.076 53.945 54.076 51.332C54.076 48.732 53.075 47.12 51.515 47.12ZM51.515 48.394C52.334 48.394 52.828 49.46 52.828 51.332C52.828 53.204 52.334 54.27 51.515 54.27C50.709 54.27 50.215 53.204 50.215 51.332C50.215 49.46 50.709 48.394 51.515 48.394ZM60.8089 55.505V56.623H71.5729V55.505H60.8089ZM65.4889 52.801V55.804H66.8409V52.801H65.4889ZM62.0049 47.003V53.126H70.3249V47.003H68.9729V48.992H63.3699V47.003H62.0049ZM63.3699 50.071H68.9729V52.021H63.3699V50.071ZM73.8859 47.302V48.407H81.4779V47.302H73.8859ZM72.7679 55.401V56.519H83.5059V55.401H72.7679ZM76.7719 51.228V55.96H78.1369V51.228H76.7719ZM80.9709 47.302V48.459C80.9709 49.889 80.9709 51.579 80.5159 53.893L81.8809 54.049C82.3359 51.592 82.3359 49.941 82.3359 48.459V47.302H80.9709Z" fill="#2F43E5" fill-opacity="0.5"/>
<rect x="106.912" y="36.5" width="97" height="31" rx="15.5" stroke="#2F43E5" stroke-opacity="0.5"/>
<path d="M122.712 57H123.635L123.986 54.101H125.78L125.442 57H126.378L126.716 54.101H128.094V53.087H126.846L127.093 51.098H128.38V50.097H127.21L127.535 47.497H126.612L126.274 50.097H124.467L124.792 47.497H123.869L123.544 50.097H122.218V51.098H123.427L123.18 53.087H121.919V54.101H123.05L122.712 57ZM124.103 53.087L124.35 51.098H126.157L125.91 53.087H124.103ZM140.248 46.21V55.102H141.613V46.21H140.248ZM141.21 49.98V51.111H143.29V49.98H141.21ZM132.357 47.562V48.641H139.351V47.562H132.357ZM135.854 49.187C134.151 49.187 132.968 50.097 132.968 51.436C132.968 52.788 134.151 53.685 135.854 53.685C137.544 53.685 138.727 52.788 138.727 51.436C138.727 50.097 137.544 49.187 135.854 49.187ZM135.854 50.24C136.79 50.24 137.427 50.695 137.427 51.436C137.427 52.19 136.79 52.632 135.854 52.632C134.918 52.632 134.281 52.19 134.281 51.436C134.281 50.695 134.918 50.24 135.854 50.24ZM135.178 46.197V48.095H136.53V46.197H135.178ZM134.099 56.74V57.845H142.094V56.74H134.099ZM134.099 54.413V57.208H135.464V54.413H134.099ZM149.906 49.46V50.565H153.156V49.46H149.906ZM152.779 46.21V54.985H154.144V46.21H152.779ZM146.409 56.74V57.845H154.417V56.74H146.409ZM146.409 54.127V57.338H147.774V54.127H146.409ZM144.836 46.99V53.035H150.322V46.99H148.983V48.953H146.188V46.99H144.836ZM146.188 50.006H148.983V51.943H146.188V50.006ZM161.046 50.708V51.813H163.152V50.708H161.046ZM165.102 46.197V58.079H166.402V46.197H165.102ZM162.71 46.418V57.507H163.997V46.418H162.71ZM158.927 47.12C157.38 47.12 156.379 48.732 156.379 51.332C156.379 53.945 157.38 55.557 158.927 55.557C160.487 55.557 161.488 53.945 161.488 51.332C161.488 48.732 160.487 47.12 158.927 47.12ZM158.927 48.394C159.746 48.394 160.24 49.46 160.24 51.332C160.24 53.204 159.746 54.27 158.927 54.27C158.121 54.27 157.627 53.204 157.627 51.332C157.627 49.46 158.121 48.394 158.927 48.394ZM170.548 47.107V48.537C170.548 49.889 169.794 51.436 168.247 52.138L168.949 53.152C170.743 52.346 171.601 50.409 171.601 48.537V47.107H170.548ZM170.86 47.107V48.537C170.86 50.357 171.64 52.463 173.577 53.308L174.162 52.216C172.589 51.475 171.913 49.837 171.913 48.537V47.107H170.86ZM175.241 47.107V48.537C175.241 49.889 174.565 51.488 172.992 52.216L173.577 53.308C175.501 52.476 176.281 50.409 176.281 48.537V47.107H175.241ZM175.566 47.107V48.537C175.566 50.513 176.398 52.372 178.205 53.152L178.92 52.138C177.347 51.462 176.619 49.98 176.619 48.537V47.107H175.566ZM168.208 55.427V56.545H178.972V55.427H168.208ZM182.988 47.978V49.642C182.988 51.631 181.766 53.867 179.946 54.738L180.726 55.817C182.728 54.829 184.067 52.203 184.067 49.642V47.978H182.988ZM183.261 47.978V49.642C183.261 52.073 184.548 54.556 186.55 55.518L187.317 54.439C185.497 53.594 184.34 51.488 184.34 49.642V47.978H183.261ZM180.388 47.38V48.511H186.849V47.38H180.388ZM188.019 46.197V58.079H189.384V46.197H188.019ZM189.072 50.877V52.008H191.23V50.877H189.072Z" fill="#2F43E5" fill-opacity="0.5"/>
<rect x="36.5" y="0.5" width="176" height="31" rx="15.5" stroke="#2F43E5" stroke-opacity="0.5"/>
<path d="M50.7121 21H51.6351L51.9861 18.101H53.7801L53.4421 21H54.3781L54.7161 18.101H56.0941V17.087H54.8461L55.0931 15.098H56.3801V14.097H55.2101L55.5351 11.497H54.6121L54.2741 14.097H52.4671L52.7921 11.497H51.8691L51.5441 14.097H50.2181V15.098H51.4271L51.1801 17.087H49.9191V18.101H51.0501L50.7121 21ZM52.1031 17.087L52.3501 15.098H54.1571L53.9101 17.087H52.1031ZM68.2481 10.21V19.102H69.6131V10.21H68.2481ZM69.2101 13.98V15.111H71.2901V13.98H69.2101ZM60.3571 11.562V12.641H67.3511V11.562H60.3571ZM63.8541 13.187C62.1511 13.187 60.9681 14.097 60.9681 15.436C60.9681 16.788 62.1511 17.685 63.8541 17.685C65.5441 17.685 66.7271 16.788 66.7271 15.436C66.7271 14.097 65.5441 13.187 63.8541 13.187ZM63.8541 14.24C64.7901 14.24 65.4271 14.695 65.4271 15.436C65.4271 16.19 64.7901 16.632 63.8541 16.632C62.9181 16.632 62.2811 16.19 62.2811 15.436C62.2811 14.695 62.9181 14.24 63.8541 14.24ZM63.1781 10.197V12.095H64.5301V10.197H63.1781ZM62.0991 20.74V21.845H70.0941V20.74H62.0991ZM62.0991 18.413V21.208H63.4641V18.413H62.0991ZM77.9061 13.46V14.565H81.1561V13.46H77.9061ZM80.7791 10.21V18.985H82.1441V10.21H80.7791ZM74.4091 20.74V21.845H82.4171V20.74H74.4091ZM74.4091 18.127V21.338H75.7741V18.127H74.4091ZM72.8361 10.99V17.035H78.3221V10.99H76.9831V12.953H74.1881V10.99H72.8361ZM74.1881 14.006H76.9831V15.943H74.1881V14.006ZM84.6781 11.224V16.827H90.2291V11.224H84.6781ZM88.8901 12.316V15.748H86.0171V12.316H88.8901ZM92.1661 10.197V18.881H93.5311V10.197H92.1661ZM93.1281 13.733V14.851H95.2081V13.733H93.1281ZM86.0171 20.74V21.845H94.0121V20.74H86.0171ZM86.0171 18.049V21.26H87.3821V18.049H86.0171ZM101.468 11.107V12.537C101.468 13.889 100.714 15.436 99.167 16.138L99.869 17.152C101.663 16.346 102.521 14.409 102.521 12.537V11.107H101.468ZM101.78 11.107V12.537C101.78 14.357 102.56 16.463 104.497 17.308L105.082 16.216C103.509 15.475 102.833 13.837 102.833 12.537V11.107H101.78ZM106.161 11.107V12.537C106.161 13.889 105.485 15.488 103.912 16.216L104.497 17.308C106.421 16.476 107.201 14.409 107.201 12.537V11.107H106.161ZM106.486 11.107V12.537C106.486 14.513 107.318 16.372 109.125 17.152L109.84 16.138C108.267 15.462 107.539 13.98 107.539 12.537V11.107H106.486ZM99.128 19.427V20.545H109.892V19.427H99.128ZM112.491 13.603V14.695H120.629V13.603H112.491ZM111.087 16.125V17.23H121.851V16.125H111.087ZM112.491 10.626V14.149H113.843V10.626H112.491ZM112.4 20.701V21.806H120.694V20.701H112.4ZM112.4 18.309V21H113.752V18.309H112.4ZM128.774 11.172V13.122C128.774 15.319 127.617 17.594 125.771 18.491L126.603 19.583C128.644 18.543 129.879 15.891 129.879 13.122V11.172H128.774ZM129.034 11.172V13.122C129.034 15.8 130.217 18.335 132.193 19.362L133.025 18.283C131.244 17.399 130.126 15.241 130.126 13.122V11.172H129.034ZM133.818 10.197V22.079H135.183V10.197H133.818ZM134.871 14.903V16.034H137.029V14.903H134.871ZM145.842 10.21V17.269H147.207V10.21H145.842ZM146.804 13.135V14.266H148.884V13.135H146.804ZM139.615 17.828V21.936H147.207V17.828H139.615ZM145.881 18.894V20.844H140.954V18.894H145.881ZM138.406 15.631V16.749H139.368C141.656 16.749 143.19 16.684 144.971 16.359L144.854 15.267C143.099 15.579 141.604 15.631 139.368 15.631H138.406ZM138.38 10.821V11.913H142.423V13.213H138.406V16.255H139.745V14.24H143.762V10.821H138.38ZM149.884 16.359V17.451H160.622V16.359H149.884ZM151.236 20.74V21.845H159.426V20.74H151.236ZM151.236 18.387V21.078H152.601V18.387H151.236ZM155.253 10.574C152.692 10.574 151.028 11.484 151.028 12.979C151.028 14.474 152.692 15.384 155.253 15.384C157.814 15.384 159.491 14.474 159.491 12.979C159.491 11.484 157.814 10.574 155.253 10.574ZM155.253 11.666C157.008 11.666 158.087 12.147 158.087 12.979C158.087 13.824 157.008 14.292 155.253 14.292C153.511 14.292 152.432 13.824 152.432 12.979C152.432 12.147 153.511 11.666 155.253 11.666ZM166.102 17.165V21.936H170.314V17.165H169.053V18.504H167.376V17.165H166.102ZM167.376 19.505H169.053V20.896H167.376V19.505ZM172.407 17.074V18.023C172.407 19.193 171.744 20.428 170.314 21.013L170.99 22.04C172.68 21.351 173.447 19.687 173.447 18.023V17.074H172.407ZM172.706 17.074V18.023C172.706 19.791 173.447 21.377 175.163 22.04L175.852 21.013C174.409 20.493 173.759 19.271 173.759 18.023V17.074H172.706ZM170.756 12.875V13.993H173.85V12.875H170.756ZM168.026 10.691C166.245 10.691 164.932 11.822 164.932 13.447C164.932 15.085 166.245 16.216 168.026 16.216C169.807 16.216 171.12 15.085 171.12 13.447C171.12 11.822 169.807 10.691 168.026 10.691ZM168.026 11.809C169.066 11.809 169.807 12.459 169.807 13.447C169.807 14.435 169.066 15.098 168.026 15.098C166.986 15.098 166.232 14.435 166.232 13.447C166.232 12.459 166.986 11.809 168.026 11.809ZM173.252 10.197V16.489H174.617V10.197H173.252ZM184.574 10.184V22.092H185.939V10.184H184.574ZM185.627 14.747V15.878H187.785V14.747H185.627ZM177.216 18.049V19.18H178.178C180.336 19.18 181.922 19.115 183.742 18.79L183.599 17.646C181.844 17.971 180.284 18.049 178.178 18.049H177.216ZM177.216 11.315V18.569H178.568V12.42H182.741V11.315H177.216Z" fill="#2F43E5" fill-opacity="0.5"/>
</svg>
